<?xml version="1.0" encoding="UTF-8" standalone="no"?>
<!-- Created with Inkscape (http://www.inkscape.org/) -->

<svg
   width="24.394516mm"
   height="7.5141664mm"
   viewBox="0 0 24.394516 7.5141664"
   version="1.1"
   id="svg1"
   inkscape:version="1.3.2 (1:1.3.2+202311252150+091e20ef0f)"
   sodipodi:docname="eduard.svg"
   xmlns:inkscape="http://www.inkscape.org/namespaces/inkscape"
   xmlns:sodipodi="http://sodipodi.sourceforge.net/DTD/sodipodi-0.dtd"
   xmlns:xlink="http://www.w3.org/1999/xlink"
   xmlns="http://www.w3.org/2000/svg"
   xmlns:svg="http://www.w3.org/2000/svg">
  <sodipodi:namedview
     id="namedview1"
     pagecolor="#ffffff"
     bordercolor="#666666"
     borderopacity="1.0"
     inkscape:showpageshadow="2"
     inkscape:pageopacity="0.0"
     inkscape:pagecheckerboard="0"
     inkscape:deskcolor="#d1d1d1"
     inkscape:document-units="mm"
     inkscape:zoom="0.84953345"
     inkscape:cx="32.370709"
     inkscape:cy="37.667734"
     inkscape:window-width="1503"
     inkscape:window-height="938"
     inkscape:window-x="0"
     inkscape:window-y="27"
     inkscape:window-maximized="1"
     inkscape:current-layer="layer1" />
  <defs
     id="defs1">
    <linearGradient
       id="linearGradient1"
       inkscape:collect="always">
      <stop
         style="stop-color:#00cf00;stop-opacity:1;"
         offset="0"
         id="stop1" />
      <stop
         style="stop-color:#009a00;stop-opacity:1;"
         offset="1"
         id="stop2" />
    </linearGradient>
    <rect
       x="145.62444"
       y="121.46375"
       width="525.37225"
       height="169.87947"
       id="rect1" />
    <linearGradient
       inkscape:collect="always"
       xlink:href="#linearGradient1"
       id="linearGradient2"
       x1="147.265"
       y1="142.66289"
       x2="239.46475"
       y2="142.66289"
       gradientUnits="userSpaceOnUse" />
  </defs>
  <g
     inkscape:label="Ebene 1"
     inkscape:groupmode="layer"
     id="layer1"
     transform="translate(-38.963864,-33.989139)">
    <path
       style="font-size:40px;line-height:1.25;font-family:'Bebas Neue';-inkscape-font-specification:'Bebas Neue';letter-spacing:0px;word-spacing:0px;white-space:pre;fill:url(#linearGradient2)"
       d="m 147.265,128.46289 h 12 v 4 h -7.6 v 7.4 h 6.04 v 4 h -6.04 v 8.6 h 7.6 v 4 h -12 z m 14.51996,0 h 6.72 q 3.28,0 4.92,1.76 1.64,1.76 1.64,5.16 v 14.16 q 0,3.4 -1.64,5.16 -1.64,1.76 -4.92,1.76 h -6.72 z m 6.64,24 q 1.08,0 1.64,-0.64 0.6,-0.64 0.6,-2.08 v -14.56 q 0,-1.44 -0.6,-2.08 -0.56,-0.64 -1.64,-0.64 h -2.24 v 20 z m 15.99993,4.4 q -3.2,0 -4.88,-1.8 -1.68,-1.84 -1.68,-5.24 v -21.36 h 4.4 v 21.68 q 0,1.44 0.56,2.08 0.6,0.64 1.68,0.64 1.08,0 1.64,-0.64 0.6,-0.64 0.6,-2.08 v -21.68 h 4.24 v 21.36 q 0,3.4 -1.68,5.24 -1.68,1.8 -4.88,1.8 z m 12.99991,-28.4 h 5.96 l 4.56,28 h -4.4 l -0.8,-5.56 v 0.08 h -5 l -0.8,5.48 h -4.08 z m 4.8,18.72 -1.96,-13.84 h -0.08 l -1.92,13.84 z m 7.83996,-18.72 h 6.52 q 3.4,0 4.96,1.6 1.56,1.56 1.56,4.84 v 1.72 q 0,4.36 -2.88,5.52 v 0.08 q 1.6,0.48 2.24,1.96 0.68,1.48 0.68,3.96 v 4.92 q 0,1.2 0.08,1.96 0.08,0.72 0.4,1.44 h -4.48 q -0.24,-0.68 -0.32,-1.28 -0.08,-0.6 -0.08,-2.16 v -5.12 q 0,-1.92 -0.64,-2.68 -0.6,-0.76 -2.12,-0.76 h -1.52 v 12 h -4.4 z m 6,12 q 1.32,0 1.96,-0.68 0.68,-0.68 0.68,-2.28 v -2.16 q 0,-1.52 -0.56,-2.2 -0.52,-0.68 -1.68,-0.68 h -2 v 8 z m 10.11999,-12 h 6.72 q 3.28,0 4.92,1.76 1.64,1.76 1.64,5.16 v 14.16 q 0,3.4 -1.64,5.16 -1.64,1.76 -4.92,1.76 h -6.72 z m 6.64,24 q 1.08,0 1.64,-0.64 0.6,-0.64 0.6,-2.08 v -14.56 q 0,-1.44 -0.6,-2.08 -0.56,-0.64 -1.64,-0.64 h -2.24 v 20 z"
       id="text1"
       transform="scale(0.26458333)"
       aria-label="EDUARD" />
  </g>
</svg>
